<svg width="98" height="100" viewBox="0 0 98 100" fill="none" xmlns="http://www.w3.org/2000/svg">
<path d="M74.9238 36.5479C75.3873 36.5582 76.0598 36.5932 76.8701 36.6934C78.499 36.8948 80.6443 37.3539 82.7695 38.3701C84.8856 39.382 86.965 40.9362 88.5215 43.3359C90.0756 45.732 91.1719 49.0681 91.1719 53.7471C91.1718 63.0141 88.3452 67.6714 85.7764 70.0254C84.4714 71.2212 83.1757 71.877 82.2217 72.2324C81.7444 72.4102 81.3537 72.5119 81.0938 72.5684C80.9643 72.5965 80.8678 72.613 80.8096 72.6221C80.8018 72.6233 80.7944 72.6241 80.7881 72.625L79.6992 72.6582L76.542 72.7529L78.6104 75.1396C78.6139 75.1439 78.62 75.1513 78.6289 75.1621C78.6514 75.1893 78.6914 75.2378 78.752 75.3135C78.8734 75.4653 79.0775 75.7247 79.3965 76.1416C80.035 76.9763 81.1286 78.4348 82.9336 80.9141C86.028 85.1648 89.7669 87.1246 92.751 88.0068C94.2047 88.4366 95.4751 88.6091 96.4023 88.6738V98.5H71.1055L53.0615 74.541L52.6113 73.9434H30.9092V80.3838L30.9111 80.4229C30.9182 80.5598 30.9154 80.7541 30.9111 81.0752C30.9071 81.3722 30.9035 81.7389 30.917 82.1357C30.9438 82.9212 31.0403 83.9043 31.3877 84.8711C31.7425 85.8584 32.3695 86.8542 33.4492 87.5869C34.1888 88.0888 35.0776 88.4233 36.1211 88.583V98.4961L6.08203 98.499C6.08179 98.3444 6.08131 98.1803 6.08105 98.0078C6.07926 96.8139 6.07761 95.2216 6.07617 93.6299C6.07474 92.0378 6.07412 90.4457 6.0752 89.2529C6.0754 89.0288 6.07584 88.8189 6.07617 88.626C7.33911 88.3913 8.39303 87.8618 9.25 87.1348C10.3969 86.1617 11.1167 84.9053 11.5732 83.7432C12.0313 82.5772 12.2534 81.4324 12.3633 80.5938C12.4187 80.1706 12.4467 79.8153 12.4609 79.5615C12.4681 79.4347 12.4717 79.3322 12.4736 79.2588C12.4746 79.222 12.4753 79.1918 12.4756 79.1699V79.1289L10.9756 79.1279H12.4756V58.4121C12.4756 52.7925 10.7719 49.6889 8.71777 48.0449C7.77866 47.2933 6.8324 46.9044 6.08496 46.7031V36.5518H74.2021L74.2422 36.5498C74.2468 36.5496 74.2564 36.5493 74.2695 36.5488C74.2957 36.5479 74.3384 36.547 74.3965 36.5459C74.5132 36.5438 74.6924 36.5427 74.9238 36.5479ZM80.752 72.6309C80.7478 72.6314 80.7458 72.6319 80.7461 72.6318C80.7465 72.6318 80.7475 72.631 80.749 72.6309H80.752ZM67.5762 50.6201C67.5169 50.622 67.4657 50.6242 67.4248 50.627L32.5625 50.6191H31.0557L31.0615 52.125L31.0889 58.8037L31.0947 60.2969L32.5889 60.2979L67.4453 60.3047L67.4463 60.3057C67.4905 60.3077 67.5482 60.3093 67.6172 60.3096C67.7545 60.3102 67.9406 60.3056 68.1602 60.2842C68.591 60.242 69.1947 60.1323 69.8203 59.8477C70.4565 59.5582 71.1317 59.0791 71.6396 58.3037C72.1492 57.5258 72.4238 56.5525 72.4238 55.3887C72.4238 54.2369 72.1462 53.2721 71.625 52.5049C71.1059 51.7409 70.4191 51.282 69.7793 51.0137C69.1503 50.75 68.5451 50.6602 68.1162 50.6309C67.8976 50.6159 67.7125 50.6158 67.5762 50.6201ZM17.8271 1.51953C17.8866 1.52231 17.9312 1.52469 17.959 1.52637C17.9727 1.52719 17.9827 1.52795 17.9883 1.52832C17.9908 1.52849 17.9925 1.52828 17.9932 1.52832L18.0459 1.53223H46.4561V5.11426H18.0723L18.0449 5.11523L18.0928 6.40527C18.0469 5.17168 18.044 5.11756 18.043 5.11523H18.0352C18.0316 5.11539 18.0277 5.116 18.0234 5.11621C18.0147 5.11664 18.0041 5.11745 17.9922 5.11816C17.9684 5.1196 17.9381 5.12099 17.9023 5.12402C17.8309 5.13008 17.7358 5.14028 17.6211 5.15625C17.3919 5.18818 17.08 5.24459 16.7129 5.3457C15.9804 5.54744 15.0078 5.93197 14.0342 6.66406C12.0174 8.18055 10.2705 10.9798 10.2705 15.8994C10.2706 20.818 12.0176 23.5965 14.0479 25.0859C15.0264 25.8038 16.0041 26.1716 16.7383 26.3604C17.1064 26.4549 17.419 26.5055 17.6484 26.5332C17.7633 26.5471 17.8582 26.5558 17.9297 26.5605C17.9654 26.5629 17.9957 26.5644 18.0195 26.5654C18.0315 26.5659 18.042 26.5661 18.0508 26.5664H18.0674L18.0703 26.5674C18.0714 26.5671 18.0729 26.546 18.1006 25.0674L18.0723 26.5674H37.4785V14.3994H27.2129V12.9326H46.4561V28.9727H18.1006C16.028 28.9727 11.8368 29.2057 8.11914 27.791C6.30008 27.0988 4.67258 26.0354 3.49316 24.4082C2.31924 22.7886 1.50025 20.4875 1.5 17.1602L1.50293 12.7588V12.7578C1.50295 9.60343 2.50668 7.42043 3.93652 5.86035C5.39624 4.26773 7.39283 3.22678 9.50293 2.56152C11.6073 1.89809 13.7364 1.63584 15.3574 1.54395C16.1634 1.49826 16.8331 1.49496 17.2969 1.50293C17.5285 1.50691 17.7083 1.51397 17.8271 1.51953ZM96.5 1.53223V5.11426H79.9902V28.9727H70.8418V5.11426H53.0488V1.53223H96.5Z" fill="white" stroke="black" stroke-width="3"/>
<path fill-rule="evenodd" clip-rule="evenodd" d="M75.3792 71.1484H72.78C72.78 71.1484 76.9692 76.0216 81.699 82.5192C86.8854 89.6439 95.0229 90.8916 95.0229 90.8916V95.828H71.5839L53.1918 71.1473H29.6655V82.3123C29.6655 82.3123 29.6655 90.8916 34.7124 90.8916V95.828H7.59545C7.59545 95.828 7.57405 90.8916 7.59545 90.8916C13.584 90.8916 13.584 82.3123 13.584 82.3123V55.3975C13.584 46.1127 7.59545 44.938 7.59545 44.938V39.6499H72.7808C72.7808 39.6499 89.4624 38.1888 89.4624 55.3986C89.4616 72.174 75.3792 71.1484 75.3792 71.1484ZM68.487 62.9098C68.487 62.9098 73.7907 62.9098 73.7907 55.3888C73.7907 47.8667 68.315 47.9843 68.315 47.9843H29.6481V62.9098H68.487Z" fill="#871111"/>
</svg>
